<?xml version="1.0" encoding="UTF-8" standalone="no"?>
<svg width="500" height="400" viewBox="0 0 500 400" xmlns="http://www.w3.org/2000/svg">
  <defs>
    <linearGradient id="gradient1" x1="0%" y1="0%" x2="100%" y2="100%">
      <stop offset="0%" stop-color="#4F46E5" stop-opacity="0.2"/>
      <stop offset="100%" stop-color="#818CF8" stop-opacity="0.1"/>
    </linearGradient>
  </defs>
  <!-- Background Shape -->
  <rect x="50" y="50" width="400" height="300" rx="20" fill="url(#gradient1)" />
  
  <!-- License Document -->
  <rect x="100" y="80" width="300" height="200" rx="8" fill="#FFFFFF" stroke="#E2E8F0" stroke-width="2"/>
  <rect x="120" y="100" width="260" height="30" rx="4" fill="#F1F5F9"/>
  <rect x="120" y="140" width="200" height="10" rx="2" fill="#E2E8F0"/>
  <rect x="120" y="160" width="180" height="10" rx="2" fill="#E2E8F0"/>
  <rect x="120" y="180" width="240" height="10" rx="2" fill="#E2E8F0"/>
  
  <!-- Graph/Chart Elements -->
  <rect x="120" y="220" width="40" height="40" rx="4" fill="#4F46E5"/>
  <rect x="170" y="200" width="40" height="60" rx="4" fill="#818CF8"/>
  <rect x="220" y="180" width="40" height="80" rx="4" fill="#A5B4FC"/>
  <rect x="270" y="210" width="40" height="50" rx="4" fill="#818CF8"/>
  <rect x="320" y="230" width="40" height="30" rx="4" fill="#4F46E5"/>
  
  <!-- Dollar Signs -->
  <text x="130" y="245" font-family="Arial" font-size="18" font-weight="bold" fill="#FFFFFF">$</text>
  <text x="180" y="225" font-family="Arial" font-size="18" font-weight="bold" fill="#FFFFFF">$</text>
  <text x="230" y="210" font-family="Arial" font-size="18" font-weight="bold" fill="#FFFFFF">$</text>
  <text x="280" y="235" font-family="Arial" font-size="18" font-weight="bold" fill="#FFFFFF">$</text>
  <text x="330" y="250" font-family="Arial" font-size="18" font-weight="bold" fill="#FFFFFF">$</text>
</svg>
